<svg width="534" height="846" viewBox="0 0 534 846" fill="none" xmlns="http://www.w3.org/2000/svg">
<path d="M33.4903 113.416C53.9683 108.059 76.0858 100.115 96.4388 93.8413C109.876 89.6998 123.345 85.5198 136.757 81.2993L302.745 29.6068L370.75 8.43231C377.955 6.19481 385.19 3.62281 392.4 1.36731C402.855 -1.90319 408.35 0.940305 416.525 7.26881C420.625 11.2523 420.985 13.9903 421.15 19.7803C421.37 27.3788 420.725 35.8158 420.94 43.3403L421.19 50.4398C428.195 53.9808 432.885 56.5223 440.38 58.9708C443.335 58.8228 447.72 60.6613 450.575 61.7523C454.365 62.9518 464.56 64.6563 466.3 65.4553C477.645 62.8868 504.355 50.8283 514.39 52.8788C520.28 54.0823 526.27 57.6953 529.555 62.7873C531.015 64.7263 531.59 67.1068 531.865 69.4753C533.97 76.5518 533.07 113.879 533.085 123.998L533.08 488.961V596.016L533.105 627.291C533.11 631.706 533.385 640.161 532.86 644.211C531.37 644.941 531.125 644.866 529.51 645.056C531.875 645.411 531.455 644.966 532.75 646.366C533.475 648.806 533.355 651.766 533.085 654.301C531.695 667.276 536.22 691.036 529.98 702.166C527.915 705.861 524.915 708.946 521.285 711.116C516.885 713.791 508.3 716.386 503.165 718.136L475.23 727.636L225.251 813.356C201.638 821.371 177.26 830.236 153.647 837.861C146.381 840.471 139.061 842.926 131.693 845.231C129.473 845.671 125.841 846.066 123.599 845.666C105.502 844.281 86.5253 835.976 70.0233 828.916C56.3963 822.726 41.5708 815.626 28.7893 807.836C-3.44268 791.531 -0.053661 761.966 0.433839 731.321C0.216839 728.711 0.372836 725.686 0.342836 723.041C0.125836 703.831 0.639841 684.581 0.194841 665.381C0.154341 657.196 0.274833 649.016 0.555833 640.841C0.042833 636.991 0.205837 632.551 0.235337 628.616C0.143337 618.121 0.148337 607.626 0.250337 597.126C-0.220663 585.411 0.121826 571.951 0.130326 560.026L0.120332 494.341L0.163331 282.479C0.174831 274.354 0.0788328 266.014 0.549333 257.922C-0.0651672 253.829 0.177336 246.196 0.202836 241.806C0.697836 235.938 0.376337 221.597 0.465837 214.839C-0.0706633 211.577 -0.0101731 195.472 0.0808269 191.17C0.387327 176.688 -0.74517 160.841 1.01233 146.582C1.71383 140.893 4.17983 134.868 6.88983 129.885C7.04433 129.508 8.28633 127.866 8.60333 127.428C15.4073 117.595 22.7443 116.222 33.4903 113.416Z" fill="#73407E"/>
<path d="M33.4903 113.416C53.9683 108.059 76.0858 100.115 96.4388 93.8413C109.876 89.6998 123.345 85.5198 136.757 81.2993L302.745 29.6068L370.75 8.43231C377.955 6.19481 385.19 3.62281 392.4 1.36731C402.855 -1.90319 408.35 0.940305 416.525 7.26881C420.625 11.2523 420.985 13.9903 421.15 19.7803C421.37 27.3788 420.725 35.8158 420.94 43.3403L421.19 50.4398C428.195 53.9808 432.885 56.5223 440.38 58.9708C443.335 58.8228 447.72 60.6613 450.575 61.7523C454.365 62.9518 464.56 64.6563 466.3 65.4553C452.515 70.2273 438.61 74.0423 424.705 78.5668L262.415 130.181L190.129 153.253C184.743 154.924 167.458 160.806 163.308 161.36C152.467 165.463 144.266 168.26 133.204 171.506C138.086 173.769 142.837 175.377 147.862 177.241C149.603 177.886 151.914 178.233 153.016 178.835L151.343 178.838C147.291 179.043 136.606 183.43 131.525 184.857C131.752 210.278 131.759 235.7 131.548 261.121C128.026 262.496 116.815 266.316 113.222 266.75C113.088 274.904 113.318 283.108 113.145 291.217C85.8883 286.074 59.4873 277.138 34.7113 264.667C24.3828 259.583 13.4028 254.167 5.16483 245.913C3.57783 244.324 2.73883 242.834 0.89383 241.332L0.202836 241.806C0.697836 235.938 0.376337 221.597 0.465837 214.839C-0.0706632 211.577 -0.010173 195.472 0.080827 191.17C0.387327 176.688 -0.74517 160.841 1.01233 146.582C1.71383 140.893 4.17983 134.868 6.88983 129.885C7.04433 129.508 8.28633 127.866 8.60333 127.428C15.4073 117.595 22.7443 116.222 33.4903 113.416Z" fill="#F9C36A"/>
<path d="M8.60333 127.428C15.4073 117.595 22.7443 116.222 33.4903 113.416L34.6198 114.977C33.3278 117.159 32.0338 118.728 32.0273 121.178C32.7033 123.081 32.8188 123.178 34.0908 124.793C27.9233 130.782 25.1658 137.907 36.0218 140.904C47.3578 138.578 67.4253 131.247 79.7083 127.738C83.1848 137.777 92.1508 142.832 101.074 147.639C104.407 149.435 117.568 153.784 121.03 153.804C129.685 156.16 135.465 157.683 144.476 158.909C147.571 159.33 161.193 160.696 163.308 161.36C152.467 165.463 144.266 168.26 133.204 171.506C138.086 173.769 142.837 175.377 147.862 177.241C149.603 177.886 151.914 178.233 153.016 178.835L151.343 178.838C147.291 179.043 136.606 183.43 131.525 184.857C131.752 210.278 131.759 235.7 131.548 261.121C128.026 262.496 116.815 266.316 113.222 266.75C113.088 274.904 113.318 283.108 113.145 291.217C85.8883 286.074 59.4873 277.138 34.7113 264.667C24.3828 259.583 13.4028 254.167 5.16483 245.913C3.57783 244.324 2.73883 242.834 0.89383 241.332L0.202836 241.806C0.697836 235.938 0.376337 221.597 0.465837 214.839C-0.0706632 211.577 -0.010173 195.472 0.080827 191.17C0.387327 176.688 -0.74517 160.841 1.01233 146.582C1.71383 140.893 4.17983 134.868 6.88983 129.885C7.04433 129.508 8.28633 127.866 8.60333 127.428Z" fill="#5E2F68"/>
<path d="M8.60333 127.428C15.4073 117.595 22.7443 116.222 33.4903 113.416L34.6198 114.977C33.3278 117.159 32.0338 118.728 32.0273 121.178C32.7033 123.081 32.8188 123.178 34.0908 124.793C27.9233 130.782 25.1658 137.907 36.0218 140.904C47.3578 138.578 67.4253 131.247 79.7083 127.738C83.1848 137.777 92.1508 142.832 101.074 147.639C104.407 149.435 117.568 153.784 121.03 153.804C129.685 156.16 135.465 157.683 144.476 158.909C147.571 159.33 161.193 160.696 163.308 161.36C152.467 165.463 144.266 168.26 133.204 171.506C138.086 173.769 142.837 175.377 147.862 177.241C149.603 177.886 151.914 178.233 153.016 178.835L151.343 178.838C147.291 179.043 136.606 183.43 131.525 184.857C131.752 210.278 131.759 235.7 131.548 261.121C128.026 262.496 116.815 266.316 113.222 266.75C114.494 248.768 112.465 227.909 113.294 209.344C113.694 200.388 120.674 187.075 120.697 187.597L118.555 187.025C115.689 184.901 104.812 183.73 100.492 181.861C88.2798 176.579 76.3388 170.584 64.3023 164.941L37.6333 152.355C29.5163 148.584 20.0823 144.972 12.8868 139.69C9.51383 137.214 9.09483 131.303 8.60333 127.428Z" fill="#824B8C"/>
<path d="M36.0219 140.904C47.3579 138.578 67.4253 131.247 79.7083 127.738C83.1848 137.777 92.1508 142.832 101.074 147.639C104.407 149.435 117.568 153.784 121.03 153.804C129.685 156.16 135.465 157.683 144.476 158.909C147.571 159.33 161.193 160.696 163.308 161.36C152.467 165.463 144.266 168.26 133.204 171.506C126.098 172.115 118.185 177.941 110.034 175.084C95.8379 170.107 81.7439 163.081 68.1244 156.562C59.6034 152.484 43.5974 146.158 36.0219 140.904Z" fill="#E39241"/>
<path d="M0.46582 214.839C15.8173 238.492 78.6808 259.74 106.237 265.631C108.564 266.129 110.838 266.614 113.222 266.75C113.088 274.904 113.318 283.108 113.145 291.217C85.8883 286.074 59.4873 277.138 34.7113 264.667C24.3828 259.583 13.4028 254.167 5.16481 245.913C3.57781 244.324 2.73881 242.834 0.893814 241.332L0.20282 241.806C0.69782 235.938 0.37632 221.597 0.46582 214.839Z" fill="#E39241"/>
<path d="M6.88983 129.885C7.04433 129.508 8.28633 127.866 8.60333 127.428C9.09483 131.303 9.51383 137.214 12.8868 139.69C20.0823 144.972 29.5163 148.584 37.6333 152.355L64.3023 164.941C76.3388 170.584 88.2798 176.579 100.492 181.861C104.812 183.73 115.689 184.901 118.555 187.025C113.637 187.105 106.136 187.104 101.472 185.206C76.2973 174.818 51.8148 162.428 27.0088 151.101C15.7378 145.954 7.59083 143.209 6.88983 129.885Z" fill="#BD9FCA"/>
<path d="M33.4903 113.416C53.9683 108.059 76.0858 100.115 96.4388 93.8413C109.876 89.6998 123.345 85.5198 136.757 81.2993L302.745 29.6068L370.75 8.43231C377.955 6.19481 385.19 3.62281 392.4 1.36731C402.855 -1.90319 408.35 0.940305 416.525 7.26881C420.625 11.2523 420.985 13.9903 421.15 19.7803C421.37 27.3788 420.725 35.8158 420.94 43.3403C420.795 45.3618 420.79 47.8723 420.73 49.9393C416.35 47.0183 413.18 44.7308 409.02 41.5298C407.915 40.2393 406.73 39.0998 405.53 37.9023C403.085 34.5663 401.615 32.5648 399.91 28.7348L311.705 55.8843C298.79 59.9003 281.915 64.4788 269.565 68.9293C229.987 80.3883 188.412 93.8943 148.974 106.169L101.392 120.911C95.0623 122.888 85.8168 125.475 79.7083 127.738C67.4253 131.247 47.3578 138.578 36.0218 140.904C25.1658 137.907 27.9233 130.782 34.0908 124.793C32.8188 123.178 32.7033 123.081 32.0273 121.178C32.0338 118.728 33.3278 117.159 34.6198 114.977L33.4903 113.416Z" fill="#51285E"/>
<path d="M33.4904 113.416C53.9684 108.059 76.0858 100.115 96.4388 93.8413C109.876 89.6998 123.345 85.5198 136.757 81.2993L302.745 29.6068L370.75 8.43231C377.955 6.19481 385.19 3.62281 392.4 1.36731C402.855 -1.90319 408.35 0.940305 416.525 7.26881C403.83 9.6848 385.62 16.2873 372.725 20.2638L289.865 45.8383L48.5059 120.27C46.3629 120.938 46.4633 120.966 44.2553 120.777C40.2803 122.125 37.8754 123.025 34.0909 124.793C32.8189 123.178 32.7033 123.081 32.0273 121.178C32.0338 118.728 33.3278 117.159 34.6198 114.977L33.4904 113.416Z" fill="#955D9E"/>
<path d="M34.0909 124.793C32.8189 123.178 32.7033 123.081 32.0273 121.178C32.0338 118.728 33.3278 117.159 34.6198 114.977C38.0623 116.924 40.9708 118.591 44.2553 120.777C40.2803 122.125 37.8754 123.025 34.0909 124.793Z" fill="#A26CA8"/>
<path d="M33.4904 113.416C40.4079 114.695 42.7509 115.868 48.5059 120.27C46.3629 120.938 46.4633 120.966 44.2553 120.777C40.9708 118.591 38.0623 116.924 34.6198 114.977L33.4904 113.416Z" fill="#5E2F68"/>
<path d="M384.58 61.8038C387.09 60.3068 417.04 51.6003 421.19 50.4398C428.195 53.9808 432.885 56.5223 440.38 58.9708C443.335 58.8228 447.72 60.6613 450.575 61.7523C454.365 62.9518 464.56 64.6563 466.3 65.4553C452.515 70.2273 438.61 74.0423 424.705 78.5668L262.415 130.181L190.129 153.253C184.743 154.924 167.458 160.806 163.308 161.36C161.193 160.696 147.571 159.33 144.476 158.909C135.465 157.683 129.685 156.16 121.03 153.804L120.864 153.412C118.853 152.415 114.502 150.878 112.299 150.937L112.073 150.578C113.665 149.728 122.101 147.234 124.5 146.493C136.105 142.974 147.73 139.516 159.372 136.12L276.865 100.065L386.28 66.3218C394.84 63.5893 402.97 60.8618 411.765 58.5378C415.25 57.6168 417.675 55.0703 422.465 55.1118C423.425 55.1203 424.155 54.7763 424.93 54.2203L424.795 53.1768C423.785 52.7248 421.135 51.3413 420.21 51.5998C408.53 54.8583 396.99 58.7283 385.38 62.2703L384.58 61.8038Z" fill="#F7C46B"/>
<path d="M440.38 58.9708C443.335 58.8228 447.72 60.6613 450.575 61.7523C448.665 63.0028 437.815 66.0503 434.925 66.9568L396.145 79.0848L299.785 108.833C272.94 117.293 245.944 125.766 219.038 134.026C216.767 134.724 214.592 135.118 212.285 134.424C210.837 133.014 211.341 133.864 210.98 131.649C212.768 129.293 231.663 124.263 235.985 122.966L271.675 111.997L387.83 75.5783C402.715 70.9663 426.44 64.6878 440.38 58.9708Z" fill="#E39241"/>
<path d="M409.02 41.5298C413.18 44.7308 416.35 47.0183 420.73 49.9393C420.79 47.8723 420.795 45.3618 420.94 43.3403L421.19 50.4398C417.04 51.6003 387.09 60.3068 384.58 61.8038C363.275 67.7348 341.445 75.7528 320.03 81.7063C314.045 83.3698 302.5 87.7338 297.165 88.6638L296.835 88.4093C298.29 88.1433 319.35 81.3008 320.335 80.6993L320.08 79.6773C319.105 79.1448 318.28 78.9953 317.18 79.1498C313.515 79.6633 308.67 74.9768 305.575 74.5878C304.695 74.4773 301.52 76.2638 299.05 75.7548C322.535 67.9303 347.455 60.6103 371.21 53.3273L398.965 44.8543C402.3 43.8313 405.805 42.3693 409.02 41.5298Z" fill="#FDDF9F"/>
<path d="M269.565 68.9294C281.915 64.4789 298.79 59.9004 311.705 55.8844L399.91 28.7349C401.615 32.5649 403.085 34.5664 405.53 37.9024L341.3 57.3569C330.455 60.7369 311.41 67.4369 300.88 69.9254L300.48 69.0669C293.82 65.9029 271.785 74.8624 266.635 70.7729C268.75 69.9964 268.685 70.4259 269.565 68.9294Z" fill="#FDDF9F"/>
<path d="M405.53 37.9023C406.73 39.0998 407.915 40.2393 409.02 41.5298C405.805 42.3693 402.3 43.8314 398.965 44.8544L371.21 53.3273C347.455 60.6103 322.535 67.9304 299.05 75.7549C296.625 76.2009 293.415 77.2498 291 77.9783C253.905 89.1768 216.937 100.816 179.82 111.943C173.966 113.698 166.253 116.666 160.384 117.606C158.799 117.038 159.552 117.481 158.405 115.626L158.712 114.606C160.662 113.291 163.991 112.784 166.388 112.004C210.895 97.5318 256.675 85.2769 300.88 69.9254C311.41 67.4369 330.455 60.7368 341.3 57.3568L405.53 37.9023Z" fill="#E39241"/>
<path d="M0.20283 241.806L0.893824 241.332C2.73882 242.834 3.57782 244.324 5.16482 245.913C13.4028 254.167 24.3828 259.583 34.7113 264.667C59.4873 277.138 85.8883 286.074 113.145 291.217C113.356 295.401 114.101 305.505 112.697 309.18L113.129 309.47C113.135 317.136 113.367 326.084 113.082 333.644L113.126 333.889L113.6 551.461L113.693 617.086C113.707 626.766 114.177 640.186 113.715 649.566L114.045 649.666C112.681 651.286 113.154 670.956 113.437 674.031L113.169 674.171C113.578 676.566 113.82 689.816 112.78 691.496L111.704 691.791C85.1413 688.636 14.2948 663.776 0.555827 640.841C0.0428269 636.991 0.205831 632.551 0.235331 628.616C0.143331 618.121 0.148331 607.626 0.250331 597.126C-0.220669 585.411 0.12182 571.951 0.13032 560.026L0.120326 494.341L0.163325 282.479C0.174825 274.354 0.0788267 266.014 0.549327 257.922C-0.0651733 253.829 0.17733 246.196 0.20283 241.806Z" fill="#51285E"/>
<path d="M0.202816 241.806L0.89381 241.332C2.73881 242.834 3.57781 244.324 5.16481 245.913C13.4028 254.167 24.3828 259.583 34.7113 264.667C59.4873 277.138 85.8883 286.074 113.145 291.217C113.356 295.401 114.101 305.505 112.697 309.18L113.129 309.47C113.135 317.136 113.367 326.084 113.082 333.644C104.864 332.991 88.3763 328.743 80.4628 325.786C57.8773 317.346 13.4353 302.952 0.163311 282.479C0.174811 274.354 0.0788124 266.014 0.549312 257.922C-0.0651876 253.829 0.177316 246.196 0.202816 241.806Z" fill="#E39241"/>
<path d="M0.202816 241.806L0.89381 241.332C2.73881 242.834 3.57781 244.324 5.16481 245.913C13.4028 254.167 24.3828 259.583 34.7113 264.667C59.4873 277.138 85.8883 286.074 113.145 291.217C113.356 295.401 114.101 305.505 112.697 309.18C87.6503 307.031 13.5448 279.202 0.549312 257.922C-0.0651876 253.829 0.177316 246.196 0.202816 241.806Z" fill="#5E2F68"/>
<path d="M0.250304 597.126C13.0953 620.561 66.9708 637.136 91.5698 645.041C96.0328 646.476 109.172 649.696 113.715 649.566L114.045 649.666C112.681 651.286 113.154 670.956 113.437 674.031L113.169 674.171C113.578 676.566 113.82 689.816 112.78 691.496L111.704 691.791C85.1413 688.636 14.2948 663.776 0.5558 640.841C0.0428 636.991 0.205804 632.551 0.235304 628.616C0.143304 618.121 0.148304 607.626 0.250304 597.126Z" fill="#E39241"/>
<path d="M0.23535 628.616C0.33885 626.571 -0.0206586 625.801 1.02284 624.576C2.73584 625.651 4.27635 628.446 5.95785 630.051C8.71935 632.691 12.2398 635.466 15.5158 637.391C45.1293 654.816 79.4088 668.386 113.169 674.171C113.578 676.566 113.82 689.816 112.78 691.496L111.704 691.791C85.1413 688.636 14.2948 663.776 0.555846 640.841C0.0428461 636.991 0.20585 632.551 0.23535 628.616Z" fill="#51285E"/>
<path d="M131.525 184.857C136.606 183.43 147.291 179.043 151.343 178.838C152.669 180.515 152.485 180.664 152.504 183.229C152.661 203.945 152.476 224.685 152.488 245.404L152.501 373.34C152.046 498.106 152.392 622.876 153.539 747.636C153.817 771.461 152.835 796.031 153.394 819.956C153.469 823.141 152.991 835.646 153.647 837.861C146.381 840.471 139.061 842.926 131.693 845.231C129.473 845.671 125.841 846.066 123.599 845.666C105.502 844.281 86.5253 835.976 70.0233 828.916C56.3963 822.726 41.5708 815.626 28.7893 807.836C-3.44266 791.531 -0.0536447 761.966 0.433855 731.321C0.216855 728.711 0.372852 725.686 0.342852 723.041C0.125852 703.831 0.639857 684.581 0.194857 665.381C0.154357 657.196 0.274849 649.016 0.555849 640.841C14.2948 663.776 85.1413 688.636 111.704 691.791L112.78 691.496C113.82 689.816 113.578 676.566 113.169 674.171L113.437 674.031C113.154 670.956 112.681 651.286 114.045 649.666L113.715 649.566C114.177 640.186 113.707 626.766 113.693 617.086L113.6 551.461L113.126 333.889L113.082 333.644C113.367 326.084 113.135 317.136 113.129 309.47L112.697 309.18C114.101 305.505 113.356 295.401 113.145 291.217C113.318 283.108 113.088 274.904 113.222 266.75C116.815 266.316 128.026 262.496 131.548 261.121C131.759 235.7 131.752 210.278 131.525 184.857Z" fill="#51285E"/>
<path d="M0.555849 640.841C14.2948 663.776 85.1413 688.636 111.704 691.791L113.514 692.136C113.566 700.446 113.259 708.381 113.125 716.641L113.288 716.916L113.55 763.116C113.572 768.211 113.996 779.241 113.54 783.606C112.482 784.436 111.493 784.291 110.108 784.346C86.7668 788.216 103.531 809.866 87.7523 814.496C78.2294 817.291 70.3883 813.101 70.0233 828.916C56.3963 822.726 41.5708 815.626 28.7893 807.836C-3.44266 791.531 -0.0536447 761.966 0.433855 731.321C0.216855 728.711 0.372852 725.686 0.342852 723.041C0.125852 703.831 0.639857 684.581 0.194857 665.381C0.154357 657.196 0.274849 649.016 0.555849 640.841Z" fill="#51285E"/>
<path d="M0.555829 640.841C14.2948 663.776 85.1413 688.636 111.704 691.791L113.514 692.136C113.566 700.446 113.259 708.381 113.125 716.641C112.037 716.561 110.952 716.436 109.874 716.266C81.3298 711.821 35.9353 693.776 11.5918 677.406C7.13484 674.406 3.32734 669.686 0.194837 665.381C0.154337 657.196 0.27483 649.016 0.555829 640.841Z" fill="#E39241"/>
<path d="M0.433855 731.321C21.3539 748.806 1.50884 765.076 17.4948 783.066C25.8263 792.441 27.9883 795.121 28.7893 807.836C-3.44266 791.531 -0.0536447 761.966 0.433855 731.321Z" fill="#E39241"/>
<path d="M48.7263 710.816C50.2773 713.046 55.9343 729.346 57.2838 733.121C61.7498 745.856 66.3978 758.526 71.2263 771.126C66.3288 768.696 61.4043 766.321 56.4543 763.996C46.4248 759.401 36.4758 754.626 26.6128 749.686C31.0878 740.846 43.4058 718.456 48.7263 710.816Z" fill="#E39241"/>
<path d="M48.1689 726.336C50.9934 731.636 57.9759 751.806 60.1374 758.151C57.3564 756.931 54.4648 755.511 51.7018 754.216C46.5403 751.806 41.4034 749.501 36.4329 746.716L48.1689 726.336Z" fill="#51285E"/>
<path d="M131.551 328.742L131.758 522.721L131.717 610.701C131.733 621.431 131.274 633.586 131.542 644.101C127.509 645.656 118.254 649.166 114.045 649.666L113.715 649.566C114.177 640.186 113.707 626.766 113.693 617.086L113.6 551.461L113.126 333.889C118.83 332.845 126.013 330.541 131.551 328.742Z" fill="#794384"/>
<path d="M110.108 784.346L113.582 784.386C125.911 786.391 127.577 794.781 129.818 805.396C132.067 821.891 131.812 828.541 131.693 845.231C129.473 845.671 125.841 846.066 123.599 845.666C105.502 844.281 86.5253 835.976 70.0233 828.916C70.3883 813.101 78.2293 817.291 87.7523 814.496C103.531 809.866 86.7668 788.216 110.108 784.346Z" fill="#E39241"/>
<path d="M113.582 784.386C125.911 786.391 127.577 794.781 129.818 805.396C132.067 821.891 131.812 828.541 131.693 845.231C129.473 845.671 125.841 846.066 123.599 845.666C112.052 836.151 113.271 824.371 113.158 810.721C113.085 801.986 113.471 793.136 113.582 784.386Z" fill="#FDDF9F"/>
<path d="M113.437 674.031C119.288 673.161 126.141 670.801 131.794 668.861C131.574 679.296 132.153 688.896 132.152 699.236L131.877 762.016C131.879 773.866 132.501 795.651 130.803 806.771L130.376 804.306L129.954 804.541L129.818 805.396C127.577 794.781 125.911 786.391 113.582 784.386L110.108 784.346C111.493 784.291 112.482 784.436 113.54 783.606C113.996 779.241 113.572 768.211 113.55 763.116L113.288 716.916L113.125 716.641C113.259 708.381 113.566 700.446 113.514 692.136L111.704 691.791L112.78 691.496C113.82 689.816 113.578 676.566 113.169 674.171L113.437 674.031Z" fill="#6C3A75"/>
<path d="M113.514 692.136C118.72 690.636 126.563 688.096 131.604 685.971L131.66 711.511C126.226 713.261 118.818 715.601 113.288 716.916L113.125 716.641C113.259 708.381 113.566 700.446 113.514 692.136Z" fill="#F7C46B"/>
<path d="M131.583 285.745C131.598 291.337 131.803 298.052 131.625 303.547C131.552 311.945 131.527 320.343 131.551 328.742C126.013 330.541 118.83 332.845 113.126 333.889L113.082 333.644C113.367 326.084 113.135 317.136 113.129 309.47L112.697 309.18C114.101 305.505 113.356 295.401 113.145 291.217C119.292 289.252 125.262 287.949 131.583 285.745Z" fill="#F7C46B"/>
<path d="M131.583 285.745C131.598 291.337 131.803 298.052 131.625 303.547C126.857 305.27 117.877 308.614 113.129 309.47L112.697 309.18C114.101 305.505 113.356 295.401 113.145 291.217C119.292 289.252 125.262 287.949 131.583 285.745Z" fill="#824B8C"/>
<path d="M114.045 649.666C118.254 649.166 127.509 645.656 131.542 644.101C131.64 651.571 131.372 661.741 131.794 668.861C126.141 670.801 119.288 673.161 113.437 674.031C113.154 670.956 112.681 651.286 114.045 649.666Z" fill="#F7C46B"/>
<path d="M113.222 266.75C116.815 266.316 128.026 262.496 131.548 261.121L131.583 285.745C125.262 287.949 119.292 289.252 113.145 291.217C113.318 283.108 113.088 274.904 113.222 266.75Z" fill="#F7C46B"/>
<path d="M466.3 65.4554C477.645 62.8869 504.355 50.8284 514.39 52.8789C520.28 54.0824 526.27 57.6954 529.555 62.7874C522.04 58.9069 517.685 60.5369 509.835 62.8269C498.21 66.2209 485.36 71.1479 473.8 74.4359C474 75.3129 474.295 76.8599 474.555 77.6574L474.46 77.9389C469.76 78.3994 453.24 84.1449 447.555 85.9954C432.025 91.0714 416.46 96.0519 400.865 100.937L170.115 173.281C167.681 174.282 155.068 178.831 153.016 178.835C151.914 178.233 149.603 177.886 147.862 177.241C142.837 175.377 138.086 173.769 133.204 171.506C144.266 168.26 152.467 165.463 163.308 161.36C167.458 160.806 184.743 154.924 190.129 153.253L262.415 130.181L424.705 78.5669C438.61 74.0424 452.515 70.2274 466.3 65.4554Z" fill="#A26CA8"/>
<path d="M170.115 173.281C165.158 173.148 156.777 177.623 153.33 177.166C156.548 174.773 196.248 162.555 203.001 160.364C268.74 139.009 334.62 118.099 400.64 97.6348L448.485 82.1133C454.665 80.1138 467.9 75.4763 473.8 74.4358C474 75.3128 474.295 76.8598 474.555 77.6573L474.46 77.9388C469.76 78.3993 453.24 84.1448 447.555 85.9953C432.025 91.0713 416.46 96.0518 400.865 100.937L170.115 173.281Z" fill="#C299C9"/>
<path d="M473.8 74.4358C485.36 71.1478 498.21 66.2208 509.835 62.8268C517.685 60.5368 522.04 58.9068 529.555 62.7873C531.015 64.7263 531.59 67.1068 531.865 69.4753C533.97 76.5518 533.07 113.879 533.085 123.998C530.925 124.465 528.535 124.775 526.335 125.108C525.455 124.539 524.595 123.934 523.765 123.295C521.295 121.374 518.845 119.38 516.365 117.295C503.29 106.309 488.835 96.5573 476.42 84.8733C475.105 83.6393 474.71 79.7728 474.46 77.9388L474.555 77.6573C474.295 76.8598 474 75.3128 473.8 74.4358Z" fill="#F7C46B"/>
<path d="M473.8 74.4358C485.36 71.1478 498.21 66.2208 509.835 62.8268C517.685 60.5368 522.04 58.9068 529.555 62.7873C531.015 64.7263 531.59 67.1068 531.865 69.4753C530.035 67.6983 527.725 65.3203 525.81 63.7208C510.885 64.5723 489.715 74.5648 474.555 77.6573C474.295 76.8598 474 75.3128 473.8 74.4358Z" fill="#FDDF9F"/>
<path d="M475.23 727.636C472.885 717.821 476.295 713.451 481.88 705.841C484.12 702.796 486.44 699.506 488.67 696.426C498.475 682.891 508.355 669.411 518.315 655.986C521.035 652.331 525.14 645.696 529.51 645.056C531.875 645.411 531.455 644.966 532.75 646.366C533.475 648.806 533.355 651.766 533.085 654.301C531.695 667.276 536.22 691.036 529.98 702.166C527.915 705.861 524.915 708.946 521.285 711.116C516.885 713.791 508.3 716.386 503.165 718.136L475.23 727.636Z" fill="#E39241"/>
<path d="M334.75 179.547C337.18 180.822 340.49 181.96 343.14 182.663L346.245 180.19C357.8 184.672 369.725 190.682 381.095 195.862L456.245 230.631C466.62 235.352 477.03 240.004 487.47 244.585C489.8 245.621 499.025 249.524 500.665 250.736C500.135 257.483 500.44 266.524 500.48 273.466L500.59 308.698L500.92 419.931C500.935 435.961 501.435 455.111 500.885 470.951C500.095 471.681 498.365 473.196 497.78 473.956C501.945 482.881 486.895 492.871 481.295 499.006C475.13 505.761 467.91 512.716 461.43 519.211L389.455 592.186C378.245 603.431 367.065 614.526 356.25 626.181C351.515 631.286 345.135 637.171 341.015 642.511C333.64 639.446 326.195 635.876 318.815 632.676C289.55 619.976 260.405 606.986 231.394 593.716C219.515 588.316 207.581 583.036 195.593 577.886C188.853 574.926 180.433 570.946 173.623 568.466C174.314 557.161 173.762 539.296 173.827 527.596L174.007 434.106L174.065 373.607C174.041 366.811 174.42 350.623 173.604 344.755C176.948 340.488 183.966 332.519 187.964 328.933C189.108 327.167 197.992 318.363 199.902 316.45L226.786 289.527C263.215 253.3 299.205 216.638 334.75 179.547Z" fill="#F4B766"/>
<path d="M173.604 344.755C176.948 340.488 183.966 332.519 187.964 328.933C187.375 330.103 184.826 334.008 183.852 334.581C183.434 341.105 184.156 349.514 184.201 356.396L184.114 401.141C184.149 454.076 183.889 507.011 183.333 559.941L341.58 630.396C345.01 627.291 347.02 626.476 349.58 624.281L349.405 623.931C351.14 621.506 360.535 612.246 362.97 609.776C374.465 598.136 386.05 586.576 397.71 575.101C431.18 541.541 463.88 507.181 497.78 473.956C501.945 482.881 486.895 492.871 481.295 499.006C475.13 505.761 467.91 512.716 461.43 519.211L389.455 592.186C378.245 603.431 367.065 614.526 356.25 626.181C351.515 631.286 345.135 637.171 341.015 642.511C333.64 639.446 326.195 635.876 318.815 632.676C289.55 619.976 260.405 606.986 231.394 593.716C219.515 588.316 207.581 583.036 195.593 577.886C188.853 574.926 180.433 570.946 173.623 568.466C174.314 557.161 173.762 539.296 173.827 527.596L174.007 434.106L174.065 373.607C174.041 366.811 174.42 350.623 173.604 344.755Z" fill="#5E2F68"/>
<path d="M334.75 179.547C337.18 180.822 340.49 181.96 343.14 182.663L267.34 260.518C254.031 274.089 209.885 318.738 193.864 336.23C193.748 336.357 193.692 337.706 193.706 337.998C194.302 392.732 194.58 447.471 194.541 502.206C194.568 519.716 194.863 537.726 194.67 555.171C208.783 561.676 348.34 624.006 349.405 623.931L349.58 624.281C347.02 626.476 345.01 627.291 341.58 630.396L183.333 559.941C183.889 507.011 184.149 454.076 184.114 401.141L184.201 356.396C184.156 349.514 183.434 341.105 183.852 334.581C184.826 334.008 187.375 330.103 187.964 328.933C189.108 327.167 197.992 318.363 199.902 316.45L226.786 289.527C263.215 253.3 299.205 216.638 334.75 179.547Z" fill="#51285E"/>
<path d="M343.14 182.663L346.245 180.19C357.8 184.672 369.725 190.682 381.095 195.862L456.245 230.631C466.62 235.352 477.03 240.004 487.47 244.585C489.8 245.621 499.025 249.524 500.665 250.736L500.075 252.712L499.53 252.971C492.255 249.316 485.69 246.668 478.38 243.374L426.355 219.915L372.72 195.234C363.755 191.164 356.065 187.335 346.79 183.689C340.51 189.491 334.86 195.921 328.835 201.982C316.29 214.608 303.705 227.122 291.325 239.911C272.58 259.267 253.324 278.127 234.64 297.547C222.154 310.524 210.392 324.541 197.191 336.794C196.566 337.375 195.613 338.342 194.743 338.304C194.046 338.274 194.312 338.332 193.706 337.998C193.692 337.706 193.748 336.357 193.864 336.23C209.885 318.738 254.031 274.089 267.34 260.518L343.14 182.663Z" fill="#FDDF9F"/>
<path d="M474.08 307.883C473.715 347.78 474.655 387.503 474.495 427.176L468.53 428.976L463.21 431.131C453.45 413.866 445.24 395.03 435.51 377.762C437.13 372.733 441.095 364.045 443.225 358.638L459.7 316.273L462.605 310.224C467.075 309.54 469.75 309.076 474.08 307.883Z" fill="#824B8C"/>
<path d="M474.08 307.883C473.715 347.78 474.655 387.503 474.495 427.176L468.53 428.976L468.77 350.585C468.725 339.183 468.96 326.992 468.4 315.669C465.395 315.961 462.725 316.248 459.7 316.273L462.605 310.224C467.075 309.54 469.75 309.076 474.08 307.883Z" fill="#6C3A75"/>
<path d="M368.52 415.611C377.555 419.446 391.665 425.796 400.115 430.501C397.835 437.291 399.43 440.621 404.2 445.696C402.36 450.391 394.265 474.531 390.87 475.736C385.265 476.296 383.625 479.721 382.255 484.601C374.91 487.631 360.125 490.786 350.735 494.151C350.475 476.146 350.3 454.481 350.835 436.591C350.885 435.396 350.68 432.936 351.7 432.356C359.975 427.661 363.205 423.601 368.52 415.611Z" fill="#794384"/>
<path d="M368.52 415.611C377.555 419.446 391.665 425.796 400.115 430.501C397.835 437.291 399.43 440.621 404.2 445.696C402.36 450.391 394.265 474.531 390.87 475.736C389.91 470.926 396.455 456.406 398.585 450.786C394.95 446.946 395.11 442.426 395.04 437.326C387.315 432.756 374.81 427.421 366.385 423.546C365.525 424.656 364.65 425.756 363.75 426.836C361.655 429.341 354.53 437.076 351.405 437.336L350.835 436.591C350.885 435.396 350.68 432.936 351.7 432.356C359.975 427.661 363.205 423.601 368.52 415.611Z" fill="#5E2F68"/>
<path d="M372.97 383.996C372.14 381.977 371.885 382.304 372.31 380.604C384.885 366.597 398.09 354.374 411.11 341.206C417.715 354.126 423.7 365.998 430.605 378.782C427.385 385.775 418.98 409.556 414.705 417.136C414.525 417.461 412.645 417.376 412.04 417.366C408.24 417.911 405.475 420.656 403.225 423.506C395.07 419.516 380.09 411.691 372.035 409.106C374.855 400.064 376.375 393.179 372.97 383.996Z" fill="#794384"/>
<path d="M372.97 383.996C372.14 381.977 371.885 382.304 372.31 380.604C384.885 366.597 398.09 354.374 411.11 341.206C417.715 354.126 423.7 365.998 430.605 378.782C427.385 385.775 418.98 409.556 414.705 417.136C414.525 417.461 412.645 417.376 412.04 417.366C412.59 412.166 422.675 388.629 425.035 383.621C424.075 381.296 420.34 374.771 418.975 372.249C415.13 365.137 411.31 357.27 407.18 350.389C399.06 355.473 388.33 368.949 381.185 376.082C378.525 378.74 376.175 381.955 372.97 383.996Z" fill="#6C3A75"/>
<path d="M231.044 374.079C238.291 389.432 246.561 403.95 253.825 418.991C246.392 426.401 247.344 434.106 253.564 441.816C250.399 449.061 248.186 456.026 245.341 463.356L231.487 498.011C229.276 498.141 227.622 498.161 225.445 498.661L220.18 499.901C218.716 460.501 221.774 419.406 219.752 380.274C219.879 379.212 219.696 378.65 220.367 378.289C223.64 376.526 227.616 375.799 231.044 374.079Z" fill="#6C3A75"/>
<path d="M231.044 374.079C238.291 389.432 246.561 403.95 253.825 418.991C246.392 426.401 247.344 434.106 253.564 441.816C250.399 449.061 248.186 456.026 245.341 463.356L231.487 498.011C229.276 498.141 227.622 498.161 225.445 498.661C226.598 495.386 230.781 487.796 232.524 483.821C237.829 471.546 242.834 459.151 247.533 446.631C246.249 445.311 244.93 443.651 243.736 442.221C242.688 434.991 243.117 430.141 247.259 423.836C244.636 417.326 239.51 408.796 236.166 402.39C232.889 396.115 229.337 388.566 225.141 382.971C223.234 380.428 222.398 380.544 219.752 380.274C219.879 379.212 219.696 378.65 220.367 378.289C223.64 376.526 227.616 375.799 231.044 374.079Z" fill="#5E2F68"/>
<path d="M325.575 428.291C332.8 434.081 334.7 434.496 343.81 434.956C343.72 455.226 343.78 475.501 344 495.776C342.065 496.451 340.015 497.211 338.07 497.806C333.545 498.561 321.75 502.451 316.615 503.876C315.885 501.921 314.7 499.311 313.275 497.816C308.53 492.846 304.705 496.366 300.425 496.196C297.05 493.491 290.145 478.231 287.19 473.261C286.315 471.336 286.12 471.726 286.465 470.056C293.255 462.091 301.815 453.721 309.085 445.986C313.565 441.221 321.045 432.421 325.575 428.291Z" fill="#794384"/>
<path d="M325.575 428.291C332.8 434.081 334.7 434.496 343.81 434.956C343.72 455.226 343.78 475.501 344 495.776C342.065 496.451 340.015 497.211 338.07 497.806C336.29 493.431 337.16 450.756 337.185 442.396C331.33 440.991 328.475 439.731 323.15 436.931C318.725 439.576 315.97 443.461 312.45 446.886C304.09 455.031 295.96 465.881 287.19 473.261C286.315 471.336 286.12 471.726 286.465 470.056C293.255 462.091 301.815 453.721 309.085 445.986C313.565 441.221 321.045 432.421 325.575 428.291Z" fill="#5E2F68"/>
<path d="M283.15 376.372C294.555 382.92 309.74 388.453 321.605 395.041C318.52 406.356 318.33 411.936 322.405 422.811C320.245 425.126 318.115 427.456 315.845 429.666C304.6 441.156 293.55 452.836 282.695 464.696C279.365 456.956 272.995 446.021 269.015 437.891C276.005 428.576 276.42 421.681 268.06 413.201C271.785 405.596 276.89 392.443 279.82 384.581C280.865 382.084 282.31 378.857 283.15 376.372Z" fill="#794384"/>
<path d="M283.15 376.372C294.555 382.92 309.74 388.453 321.605 395.041C318.52 406.356 318.33 411.936 322.405 422.811C320.245 425.126 318.115 427.456 315.845 429.666C313.895 418.496 311.985 412.886 315.87 402.012C308.115 397.231 300.885 394.07 292.615 390.336C288.825 388.624 283.69 385.575 279.82 384.581C280.865 382.084 282.31 378.857 283.15 376.372Z" fill="#5E2F68"/>
<path d="M321.885 241.994C324.305 245.24 325.89 247.165 328.625 250.148C327.255 255.581 306.075 310.543 304.07 311.889L302.34 311.841C299.23 313.029 297.505 313.92 296.065 317.131C295.51 318.409 294.98 319.701 294.485 321.006C279.75 325.17 264.535 329.398 250.037 334.24C249.076 330.293 248.196 326.084 245.374 322.997L243.833 321.457C244.524 317.912 301.165 264.764 306.65 257.338C307.585 256.074 314.105 249.67 315.54 248.372C317.6 246.257 319.73 243.995 321.885 241.994Z" fill="#824B8C"/>
<path d="M321.885 241.994C324.305 245.24 325.89 247.165 328.625 250.148C327.255 255.581 306.075 310.543 304.07 311.889L302.34 311.841C302.33 311.765 302.32 311.688 302.31 311.612C301.155 302.646 323.125 265.833 322.53 254.52C322.44 252.83 319.46 250.741 318.245 249.657C316.275 249.388 317.17 249.745 315.54 248.372C317.6 246.257 319.73 243.995 321.885 241.994Z" fill="#6C3A75"/>
<path d="M245.374 322.997L243.833 321.457C244.524 317.912 301.165 264.764 306.65 257.338C307.585 256.074 314.105 249.67 315.54 248.372C317.17 249.745 316.275 249.388 318.245 249.657C313.11 253.85 309.1 258.579 304.235 262.83C290.05 275.229 277.05 289.068 263.65 302.338C259.905 306.049 247.976 317.128 245.404 321.241L245.374 322.997Z" fill="#794384"/>
<path d="M308.745 327.422L309.035 326.921C311.605 322.466 310.39 321.036 315.77 319.388C324.805 316.619 333.985 314.347 343.005 311.526C343.265 330.625 343.76 351.387 343.335 370.384C341.515 371.339 339.385 372.388 337.67 373.466C332.815 377.641 328.4 382.157 324.995 387.583C312.425 381.343 298.89 375.55 286.085 369.452C291.175 357.247 295.82 344.714 301.355 332.766C301.405 332.651 306.63 329.913 308.32 327.93L308.745 327.422Z" fill="#794384"/>
<path d="M308.745 327.422L309.035 326.921C311.605 322.466 310.39 321.036 315.77 319.388C324.805 316.619 333.985 314.347 343.005 311.526C343.265 330.625 343.76 351.387 343.335 370.384C341.515 371.339 339.385 372.388 337.67 373.466C336.68 371.609 337.06 324.943 337.04 319.094C330.555 320.37 323.37 323.03 317 324.877C314.075 325.727 311.695 327.066 308.745 327.422Z" fill="#5E2F68"/>
<path d="M372.65 226.312C388.065 233.671 403.545 240.887 419.095 247.961C428.665 252.412 440 258.092 449.55 262.172L446.36 268.694C445.575 271.516 444.395 276.829 442.57 278.874L440.885 279.577C437.065 279.247 408 288.584 402.725 290.198C402.4 289.183 402.025 288.184 401.61 287.202C398.095 279.11 392.225 279.303 385.185 282.376C383.635 277.854 379.67 270.569 377.475 266.294C372.945 257.464 368.31 248.935 364.26 239.842C366.08 237.531 368.085 234.445 369.79 231.964C370.7 230.195 371.855 228.098 372.65 226.312Z" fill="#824B8C"/>
<path d="M372.65 226.312C388.065 233.671 403.545 240.887 419.095 247.961C428.665 252.412 440 258.092 449.55 262.172L446.36 268.694L445.455 269.184L444.885 268.698C442.695 266.767 429.635 260.831 426.345 259.335C407.09 250.584 388.565 241.685 369.79 231.964C370.7 230.195 371.855 228.098 372.65 226.312Z" fill="#6C3A75"/>
<path d="M444.885 268.698L445.455 269.184L446.36 268.694C445.575 271.516 444.395 276.829 442.57 278.874L440.885 279.577C440.975 276.753 442.68 270.5 444.885 268.698Z" fill="#6C3A75"/>
<path d="M291.755 516.041C294.76 525.446 299.86 525.741 308.275 522.821C315.195 535.376 323.93 551.516 330.255 564.181C326.56 569.171 324.9 572.366 322.18 577.966L322.13 578.036C320.475 578.731 311.265 573.391 308.635 572.336C287.53 563.826 266.49 552.196 245.066 544.701C247.221 541.221 248.597 537.016 249.768 533.121C250.059 531.211 250.071 529.586 251.306 528.156C254.77 526.161 287.09 516.936 291.755 516.041Z" fill="#6C3A75"/>
<path d="M291.755 516.041C294.76 525.446 299.86 525.741 308.275 522.821C315.195 535.376 323.93 551.516 330.255 564.181C326.56 569.171 324.9 572.366 322.18 577.966C321.64 575.071 322.935 571.101 322.33 569.236C318.445 557.226 308.795 541.096 302.66 529.946C294.195 532.541 291.14 531.516 288.18 522.936C283.11 524.526 252.583 534.191 249.768 533.121C250.059 531.211 250.071 529.586 251.306 528.156C254.77 526.161 287.09 516.936 291.755 516.041Z" fill="#5E2F68"/>
<path d="M443.93 472.046C444.7 477.151 446.62 480.601 448.905 485.186C446.79 487.946 445.3 489.611 442.905 492.146L373.32 562.841C370.77 558.891 369.51 557.766 365.69 555.321C368.77 543.891 375.03 529.816 379.355 518.661C381.84 512.261 385.73 501.281 388.965 495.666C392.575 494.181 393.51 493.516 396.29 490.751C397.345 488.566 397.865 487.386 398.63 485.091C412.905 481.011 429.755 475.691 443.93 472.046Z" fill="#794384"/>
<path d="M443.93 472.046C444.7 477.151 446.62 480.601 448.905 485.186C446.79 487.946 445.3 489.611 442.905 492.146C441.065 488.926 441.085 482.741 440.84 478.791C434.135 481.031 401.73 490.951 396.29 490.751C397.345 488.566 397.865 487.386 398.63 485.091C412.905 481.011 429.755 475.691 443.93 472.046Z" fill="#5E2F68"/>
<path d="M377.21 301.59C380.62 310.286 384.805 312.746 393.99 309.124C398.51 317.943 403.28 326.97 407.515 335.904C405.81 337.723 404.14 339.598 402.27 341.244C390.39 352.582 379.935 363.758 368.445 375.324C362.16 370.628 357.915 368.903 350.06 368.502C350.33 350.996 350.49 333.488 350.55 315.98L350.69 309.682C359.545 306.769 368.39 304.396 377.21 301.59Z" fill="#824B8C"/>
<path d="M377.21 301.59C380.62 310.286 384.805 312.746 393.99 309.124C398.51 317.943 403.28 326.97 407.515 335.904C405.81 337.723 404.14 339.598 402.27 341.244C400.095 335.172 392.175 321.142 388.5 315.67C380.14 318.318 376.52 315.807 372.91 308.449C365.98 310.446 356.86 312.82 350.55 315.98L350.69 309.682C359.545 306.769 368.39 304.396 377.21 301.59Z" fill="#6C3A75"/>
<path d="M348.315 560.076C377.065 557.546 373.66 598.671 348.84 608.176C328.875 612.281 324.165 590.606 330.54 576.321C334.53 567.376 339.245 563.531 348.315 560.076Z" fill="#5E2F68"/>
<path d="M350.565 568.111C351.795 567.136 351.87 566.876 352.54 565.451C357.945 563.326 363.49 571.011 361.395 575.911C362.535 583.821 358.62 583.416 352.03 586.301C352.005 590.426 351.99 594.411 351.785 598.541C349.57 599.806 347.795 600.461 345.45 601.411C345.035 597.121 345.13 593.366 345.185 589.076C341.76 589.731 337.97 592.216 335.28 590.106C333.075 583.271 339.975 582.561 344.69 581.001C345.245 574.201 342.46 569.601 350.565 568.111Z" fill="#E39241"/>
<path d="M350.565 568.111C351.795 567.136 351.87 566.876 352.54 565.451C357.945 563.326 363.49 571.011 361.395 575.911L351.635 578.881C351.675 575.926 352.345 569.966 350.565 568.111Z" fill="#6C3A75"/>
<path d="M332.835 422.706C323.89 415.301 326.355 402.168 330.59 392.844C334.72 383.76 347.61 372.851 357.675 378.861C369.69 386.038 369.295 400.389 362.91 411.431C357.375 421.876 343.58 432.326 332.835 422.706Z" fill="#6C3A75"/>
<path d="M347.335 385.437C350.825 390.579 357.075 401.946 360.74 407.951L359.48 408.886C361.2 409.291 361.755 409.111 362.85 410.151L362.91 411.431C357.375 421.876 343.58 432.326 332.835 422.706L333.17 421.821C334.94 421.701 335.495 421.646 337.22 421.286C336.015 420.681 335.22 420.716 334.035 420.281C331.985 419.536 331.78 415.801 332.835 414.186L333.48 414.356L333.85 415.596C334.535 413.216 337.19 407.251 338.3 404.902C340.755 399.679 343.665 389.098 347.335 385.437Z" fill="#F7C46B"/>
<path d="M333.85 415.596C337.18 416.526 354.575 410.346 359.48 408.886C361.2 409.291 361.755 409.111 362.85 410.151L362.91 411.431C357.375 421.876 343.58 432.326 332.835 422.706L333.17 421.821C334.94 421.701 335.495 421.646 337.22 421.286C336.015 420.681 335.22 420.716 334.035 420.281C331.985 419.536 331.78 415.801 332.835 414.186L333.48 414.356L333.85 415.596Z" fill="#6C3C72"/>
<path d="M347.335 385.437C352.325 385.481 353.935 386.022 357.735 389.538C360.935 392.491 365.805 403.815 362.83 407.671C361.56 408.031 361.985 408.046 360.74 407.951C357.075 401.946 350.825 390.579 347.335 385.437Z" fill="#794384"/>
<path d="M476.15 435.511C497.01 440.991 494.64 460.341 484.395 474.466C478.355 481.231 469.1 488.051 459.975 482.616C447.9 475.376 450.61 457.526 457.515 447.571C462.535 440.341 467.59 437.206 476.15 435.511Z" fill="#6C3A75"/>
<path d="M459.975 482.616C464.83 480.971 470.26 480.676 475.65 478.001C478.55 476.566 481.61 474.376 484.395 474.466C478.355 481.231 469.1 488.051 459.975 482.616Z" fill="#824B8C"/>
<path d="M460.72 453.001C461.275 448.771 479.625 444.651 482.135 445.536L482.845 447.336C485.125 452.356 487.4 461.161 485.7 466.556C484.605 467.701 485.265 467.391 483.63 467.461L483.105 467.121C483.095 467.496 482.91 468.416 482.84 468.821C480.41 471.296 466.145 474.531 461.18 476.181C460.94 470.771 461.62 457.461 460.72 453.001Z" fill="#F7C46B"/>
<path d="M482.845 447.336C485.125 452.356 487.4 461.161 485.7 466.556C484.605 467.701 485.265 467.391 483.63 467.461L483.105 467.121C482.27 461.106 482.64 453.486 482.845 447.336Z" fill="#794384"/>
<path d="M460.72 453.001C461.275 448.771 479.625 444.651 482.135 445.536C481.945 445.886 481.76 446.236 481.57 446.591C476.145 448.516 470.665 450.556 465.15 452.201C463.03 452.831 462.7 453.016 460.72 453.001Z" fill="#FDDF9F"/>
<path d="M460.205 299.481C456.675 297.841 453.595 293.656 452.285 290.014C447.305 276.141 456.21 258.34 470.12 253.671C473.8 252.436 478.215 252.593 481.63 254.556C485.805 256.955 489.7 261.95 490.9 266.681C492.315 273.07 490.89 279.52 487.625 285.075C485.76 288.814 483.185 292.732 480.015 295.494C473.435 300.012 468.81 302.161 460.75 299.506L460.205 299.481Z" fill="#F7C46B"/>
<path d="M460.205 299.481C456.675 297.841 453.595 293.656 452.285 290.014C447.305 276.141 456.21 258.34 470.12 253.671C473.8 252.436 478.215 252.593 481.63 254.556C485.805 256.955 489.7 261.95 490.9 266.681C492.315 273.07 490.89 279.52 487.625 285.075L486.905 284.91C486.99 284.625 487.175 284.083 487.17 283.811C487.145 277.825 489.135 272.281 484.15 267.558L484.3 269.377C473.9 269.797 477.015 271.404 471.63 261.721C470.46 262.861 470.23 262.884 469.835 264.485C466.66 265.202 462.87 271.469 462.69 274.376C461.265 274.976 459.155 275.785 457.835 276.466L457.085 276.338L455.95 277.995C454.84 283.969 455.105 284.357 459.445 288.587C460.625 292.559 460.4 295.372 460.205 299.481Z" fill="#794384"/>
<path d="M471.8 261.39C474.69 258.847 481.79 265.556 484.15 267.558L484.3 269.377C473.9 269.797 477.015 271.404 471.63 261.721C470.46 262.861 470.23 262.884 469.835 264.485C466.66 265.202 462.87 271.469 462.69 274.376C461.265 274.976 459.155 275.785 457.835 276.466L457.085 276.338C456.91 275.597 456.69 274.256 456.94 273.511C459.655 265.391 462.855 259.927 471.8 261.39Z" fill="#91598F"/>
<path d="M457.085 276.338L457.835 276.466L464.125 281.802C464.08 285.402 463.96 289.251 464.01 292.829C466.685 290.733 469.31 288.574 471.88 286.354C475.335 287.694 476.435 288.126 480.06 288.775C479.95 291.63 478.87 293.055 476.335 294.361C477.85 295.036 478.33 295.354 480.015 295.494C473.435 300.012 468.81 302.161 460.75 299.506L460.205 299.481C460.4 295.372 460.625 292.559 459.445 288.587C455.105 284.357 454.84 283.969 455.95 277.995L457.085 276.338Z" fill="#6C3A75"/>
<path d="M460.75 299.506C462.775 297.91 473.3 295.236 476.335 294.361C477.85 295.036 478.33 295.354 480.015 295.494C473.435 300.012 468.81 302.161 460.75 299.506Z" fill="#91598F"/>
<path d="M455.95 277.995C458.78 280.331 463.035 285.194 459.445 288.587C455.105 284.357 454.84 283.969 455.95 277.995Z" fill="#5E2F68"/>
<path d="M484.15 267.558C489.135 272.281 487.145 277.825 487.17 283.811C487.175 284.083 486.99 284.625 486.905 284.91L487.625 285.075C485.76 288.814 483.185 292.732 480.015 295.494C478.33 295.354 477.85 295.036 476.335 294.361C478.87 293.055 479.95 291.63 480.06 288.775L477.87 278.839C480.025 276.048 483.115 272.543 484.3 269.377L484.15 267.558Z" fill="#824B8C"/>
<path d="M462.69 274.376C462.87 271.469 466.66 265.202 469.835 264.485C468.725 269.951 468.585 272.528 462.69 274.376Z" fill="#6C3A75"/>
<path d="M478.67 307.323C479.735 303.75 485.915 300.63 489.13 296.805C490.52 308.698 489.925 331.88 489.945 344.542L490.095 430.501C487.76 429.421 485.445 428.241 482.98 427.526C481.645 427.256 479.815 427.026 478.435 426.816C478.965 398.495 479.06 370.168 478.725 341.845C478.635 330.886 479.15 318.042 478.67 307.323Z" fill="#6C3A75"/>
<path d="M478.67 307.323C480.535 307.151 481.39 306.68 482.49 307.521C483.46 312.514 483.46 332.953 483.53 338.991C483.715 359.447 483.765 379.904 483.675 400.361C483.565 409.346 483.005 418.731 482.98 427.526C481.645 427.256 479.815 427.026 478.435 426.816C478.965 398.495 479.06 370.168 478.725 341.845C478.635 330.886 479.15 318.042 478.67 307.323Z" fill="#824B8C"/>
<path d="M204.185 538.716C203.771 529.941 205.475 521.721 211.736 514.866C224.845 500.511 242.939 506.361 243.433 526.421C243.743 539.011 232.92 553.876 219.321 553.806L217.023 553.601C210.498 551.986 208.796 549.186 205.678 543.631L204.185 538.716Z" fill="#683669"/>
<path d="M224.965 515.601C226.038 514.541 225.93 514.556 227.413 514.331C231.573 516.701 229.937 522.906 233.014 523.536C235.185 523.516 234.691 523.181 235.959 524.286C236.376 526.301 236.44 525.341 235.786 527.271C233.159 529.921 229.497 530.671 225.833 531.926C226.141 536.816 227.797 543.151 223.262 546.041C221.544 548.846 220.33 550.641 219.321 553.806L217.023 553.601C210.498 551.986 208.796 549.186 205.678 543.631L204.185 538.716C210.479 536.521 207.156 535.616 210.351 532.866C212.162 529.191 216.765 528.696 220.5 527.661C220.553 525.541 220.409 523.386 220.483 521.271C220.632 517.041 221.599 517.006 224.965 515.601Z" fill="#E39241"/>
<path d="M204.185 538.716C210.479 536.521 207.156 535.616 210.351 532.866C210.776 533.796 211.012 534.866 211.774 535.196C214.004 536.151 218.324 534.386 220.709 533.611C220.706 537.886 219.221 544.056 223.262 546.041C221.544 548.846 220.33 550.641 219.321 553.806L217.023 553.601C210.498 551.986 208.796 549.186 205.678 543.631L204.185 538.716Z" fill="#5E2F68"/>
<path d="M205.678 543.631C208.306 542.061 209.319 541.006 212.23 541.141C215.853 543.106 214.598 548.881 217.023 553.601C210.498 551.986 208.796 549.186 205.678 543.631Z" fill="#6C3A75"/>
<path d="M224.965 515.601C226.038 514.541 225.93 514.556 227.413 514.331C231.573 516.701 229.937 522.906 233.014 523.536C231.159 524.296 228.405 525.081 226.431 525.711C226.126 522.661 226.289 518.261 224.965 515.601Z" fill="#794384"/>
<path d="M225.598 322.577C227.986 322.324 232.235 323.491 234.237 324.676C244.428 330.704 243.966 345.625 238.95 354.863C234.592 362.889 229.703 366.84 221.268 369.549C217.493 369.565 214.009 369.679 210.739 367.563C199.496 360.287 202.72 343.493 208.954 333.896C213.531 326.849 217.925 324.366 225.598 322.577Z" fill="#6C3A75"/>
<path d="M210.17 362.601C210.609 361.162 211.098 359.738 211.635 358.332C213.349 353.81 220.962 331.631 223.719 330.388C234.01 333.373 236.494 341.635 235.22 351.414C235.912 352.691 235.917 352.591 235.975 354.031C233.892 356.369 214.676 361.324 210.17 362.601Z" fill="#F7C46B"/>
<path d="M223.719 330.388C234.01 333.373 236.494 341.635 235.22 351.414C231.477 344.356 227.643 337.347 223.719 330.388Z" fill="#824B8C"/>
<path d="M244.668 358.81C252.075 363.382 270.18 370.383 279.2 374.838C276.655 381.575 266.585 409.081 263.36 413.011C261.65 413.666 261.235 413.641 259.465 413.801C258.285 414.341 258.225 414.451 256.955 414.586C255.665 412.781 254.77 410.756 253.796 408.766C247.516 395.972 240.619 383.487 234.572 370.576C236.567 368.877 238.181 367.226 240.026 365.381C241.536 363.165 243.084 360.974 244.668 358.81Z" fill="#794384"/>
<path d="M244.668 358.81C252.075 363.382 270.18 370.383 279.2 374.838C276.655 381.575 266.585 409.081 263.36 413.011C261.65 413.666 261.235 413.641 259.465 413.801C260.07 411.006 263.7 404.272 265.005 401.008C267.595 394.503 270.09 387.811 272.975 381.447C262.44 375.799 250.864 371.161 240.026 365.381C241.536 363.165 243.084 360.974 244.668 358.81Z" fill="#5E2F68"/>
<path d="M205.074 375.34C208.578 377.388 211.554 377.571 215.519 378.091C216.427 418.856 214.609 460.571 216.135 501.481L211.458 504.961C209.033 506.966 207.461 508.786 205.353 511.106C204.586 466.381 205.221 420.216 205.074 375.34Z" fill="#5E2F68"/>
<path d="M449.22 302.278C452.51 304.927 454.48 306.498 458.055 308.681C453.67 321.712 448.125 334.713 443.035 347.516C440.05 355.029 436.325 366.126 432.44 373.061L429.94 367.48C427.445 361.817 418.63 344.854 415.405 340.021C415.115 339.274 414.27 337.644 414.615 337.255C424.03 326.613 439.83 311.986 449.22 302.278Z" fill="#824B8C"/>
<path d="M449.22 302.278C452.51 304.927 454.48 306.498 458.055 308.681C453.67 321.712 448.125 334.713 443.035 347.516C440.05 355.029 436.325 366.126 432.44 373.061L429.94 367.48C438.895 352.9 445.72 330.512 452.39 314.497C448.98 312.98 448.375 312.32 446.16 309.267C444.495 311.333 436.57 318.74 434.01 321.264C429.435 325.784 420.16 336.83 415.405 340.021C415.115 339.274 414.27 337.644 414.615 337.255C424.03 326.613 439.83 311.986 449.22 302.278Z" fill="#6C3A75"/>
<path d="M452.215 488.436C455.865 490.776 458.675 492.466 462.945 493.611L458.115 498.276C439.225 518.821 418.24 538.411 398.845 558.576C391.585 566.126 383.33 574.711 375.565 581.591C376.305 575.076 375.925 573.501 374.655 567.046C386.3 554.491 399.735 541.856 411.805 529.531C422.235 518.876 432.785 507.616 443.465 497.331C446.365 494.351 449.28 491.386 452.215 488.436Z" fill="#6C3A75"/>
<path d="M452.215 488.436C455.865 490.776 458.675 492.466 462.945 493.611L458.115 498.276C454.335 496.991 448.55 498.996 443.465 497.331C446.365 494.351 449.28 491.386 452.215 488.436Z" fill="#5E2F68"/>
<path d="M350.99 498.721C359.635 495.501 371.47 493.151 380.88 490.016C382.05 491.546 383.555 493.411 384.6 494.976C381.63 501.286 362.875 551.041 361.21 552.146C359.77 551.791 359.745 551.761 358.425 551.066C356.27 550.781 352.605 551.021 350.315 551.096C351.15 536.786 350.485 522.481 350.595 508.161C350.615 505.011 350.6 501.851 350.99 498.721Z" fill="#6C3A75"/>
<path d="M350.99 498.721C359.635 495.501 371.47 493.151 380.88 490.016C382.05 491.546 383.555 493.411 384.6 494.976C381.63 501.286 362.875 551.041 361.21 552.146C359.77 551.791 359.745 551.761 358.425 551.066C360.505 542.571 380.28 503.241 376.315 498.106C371.745 497.506 356.23 503.016 351.305 504.666C351.225 502.681 351.12 500.701 350.99 498.721Z" fill="#5E2F68"/>
<path d="M319.015 224.502C318.71 228.807 319.45 233.672 320.035 237.935C315.405 243.589 305.705 252.333 300.31 258.028C281.125 278.266 260.92 297.581 241.313 317.428C239.491 316.243 237.839 315.469 235.904 314.506C234.239 314.258 233.034 314.293 231.799 313.211C231.856 312.876 231.853 312.525 231.969 312.206C232.315 311.247 313.69 228.416 319.015 224.502Z" fill="#824B8C"/>
<path d="M315.22 513.806C315.625 512.291 316.19 509.346 317.415 508.831C324.91 505.681 336.27 502.941 344.075 500.781L344.155 553.306C342.235 554.201 339.755 555.266 337.935 556.236C336.395 557.356 334.675 558.951 333.225 560.231C326.39 546.576 319.325 533.046 312.025 519.636C313.6 517.306 314.06 516.381 315.22 513.806Z" fill="#6C3A75"/>
<path d="M315.22 513.806C315.625 512.291 316.19 509.346 317.415 508.831C324.91 505.681 336.27 502.941 344.075 500.781L344.155 553.306C342.235 554.201 339.755 555.266 337.935 556.236C337.26 541.231 337.465 523.096 337.845 508.251C330.53 510.986 322.87 512.336 315.22 513.806Z" fill="#5E2F68"/>
<path d="M256.41 446.346C258.655 441.531 260.9 442.996 265.4 440.966C268.61 447.386 276.95 462.586 279.13 468.126L273.8 473.786C263.815 483.641 254.207 494.646 244.358 504.161C240.692 501.716 239.178 500.976 235.132 499.226C237.139 493.496 240.288 486.781 242.629 481.041C247.31 469.511 251.904 457.946 256.41 446.346Z" fill="#6C3A75"/>
<path d="M256.41 446.346C258.655 441.531 260.9 442.996 265.4 440.966C268.61 447.386 276.95 462.586 279.13 468.126L273.8 473.786C269.02 468.116 261.47 449.231 256.41 446.346Z" fill="#5E2F68"/>
<path d="M429.06 394.039C430.375 390.768 431.87 387.282 432.875 383.928C437.785 392.142 442.705 402.594 447.165 411.261C450.96 418.621 455.875 427.026 459.265 434.351C456.965 436.386 455.59 437.531 453.625 439.951C452.715 441.741 450.845 444.291 449.655 446.021C444.235 442.701 430.825 437.066 424 433.661C424.555 426.411 425.04 423.351 418.96 418.626L429.06 394.039Z" fill="#794384"/>
<path d="M429.06 394.039C430.375 390.768 431.87 387.282 432.875 383.928C437.785 392.142 442.705 402.594 447.165 411.261C450.96 418.621 455.875 427.026 459.265 434.351C456.965 436.386 455.59 437.531 453.625 439.951C450.28 433.436 446.265 426.131 442.855 419.616C439.69 413.571 432.825 398.539 429.06 394.039Z" fill="#6C3A75"/>
<path d="M282.33 473.891C286.355 481.306 292.85 493.471 296.2 500.776C293.79 503.911 292.485 505.551 291.75 509.551C291.48 509.961 291.215 510.371 290.945 510.781C280.46 514.796 261.32 519.666 251.439 522.916C250.823 519.601 249.985 514.886 248.529 511.831C248.403 508.546 258.23 499.336 260.815 496.631C268.06 489.121 275.235 481.541 282.33 473.891Z" fill="#6C3A75"/>
<path d="M282.33 473.891C286.355 481.306 292.85 493.471 296.2 500.776C293.79 503.911 292.485 505.551 291.75 509.551C291.285 509.221 290.48 508.706 290.245 508.161C286.58 499.696 283.12 491.251 277.375 483.906C271.12 489.681 255.56 509.561 248.529 511.831C248.403 508.546 258.23 499.336 260.815 496.631C268.06 489.121 275.235 481.541 282.33 473.891Z" fill="#5E2F68"/>
<path d="M335.065 204.816C336.12 205.083 335.81 205.299 336.75 204.818C342.53 201.858 352.325 202.93 357.97 205.83C359.245 206.854 358.97 206.346 359.555 207.698C365.855 214.746 360.315 227.577 361.565 229.683L362.235 229.089L362.74 228.98C358.8 240.02 340.33 250.833 331.415 238.953C327.235 233.379 326.555 228.317 327.285 221.597C328.06 215.403 329.485 212.51 332.88 207.589C333.52 206.517 334.25 205.756 335.065 204.816Z" fill="#F7C46B"/>
<path d="M359.205 208.183L359.555 207.698C365.855 214.746 360.315 227.577 361.565 229.683L362.235 229.089L362.74 228.98C358.8 240.02 340.33 250.833 331.415 238.953C327.235 233.379 326.555 228.317 327.285 221.597C332.265 224.067 337.86 238.979 341.56 241.066L342.015 240.362C343.45 238.169 343.875 237.286 346.42 236.409C348.22 235.374 357.76 211.89 359.205 208.183Z" fill="#824B8C"/>
<path d="M332.88 207.589C334.67 210.62 332.835 211.408 333.92 213.377L333.885 214.142C333.655 216.572 344.29 233.083 346.42 236.409C343.875 237.286 343.45 238.169 342.015 240.362L341.56 241.066C337.86 238.979 332.265 224.067 327.285 221.597C328.06 215.403 329.485 212.51 332.88 207.589Z" fill="#6C3A75"/>
<path d="M335.065 204.816C336.12 205.083 335.81 205.299 336.75 204.818C342.53 201.858 352.325 202.93 357.97 205.83C353.515 207.223 336.53 211.75 333.92 213.377C332.835 211.408 334.67 210.62 332.88 207.589C333.52 206.517 334.25 205.756 335.065 204.816Z" fill="#824B8C"/>
<path d="M357.97 205.83C359.245 206.854 358.97 206.346 359.555 207.698L359.205 208.183C354.38 209.808 339.2 215.366 334.705 214.788L333.885 214.142L333.92 213.377C336.53 211.75 353.515 207.223 357.97 205.83Z" fill="#FDDF9F"/>
<path d="M402.75 294.772C415.955 291.015 430.25 286.406 443.355 283.078C443.675 288.023 444.425 291.864 445.745 296.665C443.45 298.725 441.02 300.85 438.79 302.96C430.065 312.578 420.245 322.296 411.245 331.859C407.845 323.653 402.01 314.655 398.07 305.321C398.39 304.647 399.425 303.065 399.86 302.349C400.865 299.838 401.915 297.342 402.75 294.772Z" fill="#824B8C"/>
<path d="M402.75 294.772C415.955 291.015 430.25 286.406 443.355 283.078C443.675 288.023 444.425 291.864 445.745 296.665C443.45 298.725 441.02 300.85 438.79 302.96C438.46 301.635 439.055 292.593 439.075 290.187C428.195 294.235 416.345 296.154 405.275 299.629C403.18 300.287 402.025 301.664 399.86 302.349C400.865 299.838 401.915 297.342 402.75 294.772Z" fill="#6C3A75"/>
<path d="M250.453 338.369C257.185 336.611 289.99 326.24 293.155 326.362C293.405 326.372 294.065 326.757 294.195 326.864C295.49 327.94 296 329.485 296.005 331.118C296.02 333.646 284.455 365.396 282.685 367.048C282.585 367.14 282.465 367.205 282.36 367.284L280.51 366.697C277.9 365.232 271.555 362.589 268.605 361.254C261.855 358.197 254.665 354.58 247.848 351.841C248.523 349.54 248.936 347.003 249.389 344.634C249.768 342.55 250.123 340.461 250.453 338.369Z" fill="#794384"/>
<path d="M250.453 338.369C257.185 336.611 289.99 326.24 293.155 326.362C293.405 326.372 294.065 326.757 294.195 326.864C295.49 327.94 296 329.485 296.005 331.118C296.02 333.646 284.455 365.396 282.685 367.048C282.585 367.14 282.465 367.205 282.36 367.284L280.51 366.697C280.305 359.382 293.595 337.251 290.03 333.747C286.665 333.781 284.66 335.351 282.025 335.621C271.065 336.748 259.925 343.032 249.389 344.634C249.768 342.55 250.123 340.461 250.453 338.369Z" fill="#6C3A75"/>
<path d="M420.695 440.411C429.24 444.766 437.835 449.021 446.475 453.176C445.725 456.196 444.1 466.536 442.785 467.826C440.105 468.126 434.96 469.696 432.24 470.466C425.785 472.281 419.335 474.126 412.9 476.011C408.55 477.306 403.005 479.271 398.635 479.971C393.78 477.471 403.375 459.016 405.215 454.571C406.29 451.321 406.775 449.861 408.325 446.786C415 446.456 415.91 445.066 420.695 440.411Z" fill="#794384"/>
<path d="M420.695 440.411C429.24 444.766 437.835 449.021 446.475 453.176C445.725 456.196 444.1 466.536 442.785 467.826C441.235 465.096 441.355 463.996 440.62 460.941C438.225 457.951 422.265 450.526 417.75 448.306C415.135 450.056 408.905 454.506 406.075 455.191L405.215 454.571C406.29 451.321 406.775 449.861 408.325 446.786C415 446.456 415.91 445.066 420.695 440.411Z" fill="#6C3A75"/>
<path d="M374.465 208.296C381.935 211.318 389.59 214.796 396.89 218.252C418.355 228.412 440.415 237.797 461.81 248.045L455.505 253.753L452.25 257.823L401.86 234.476C395.76 231.684 379.15 224.563 374.315 221.376C373.775 219.796 374.25 217.982 374.51 216.272C374.51 213.651 374.555 210.905 374.465 208.296Z" fill="#6C3A75"/>
<path d="M374.51 216.272C379.09 220.409 385.11 222.545 390.78 225.128L416.145 236.733C418.84 237.969 425.8 240.957 428.015 242.295C431.28 243.715 434.02 244.865 437.13 246.623C442.455 248.27 450.5 253.077 455.505 253.753L452.25 257.823L401.86 234.476C395.76 231.684 379.15 224.563 374.315 221.376C373.775 219.796 374.25 217.982 374.51 216.272Z" fill="#824B8C"/>
<path d="M428.015 242.295C431.28 243.715 434.02 244.865 437.13 246.623C434.47 246.865 428.91 245.123 428.015 242.295Z" fill="#91598F"/>
<path d="M242.357 548.951C260.82 555.151 281.61 566.321 299.83 574.061C306.395 576.851 313.42 580.776 320.125 582.956C320.105 586.156 320.02 589.646 320.135 592.826C320.375 594.491 320.56 595.046 320.195 596.716C318.05 596.636 282.745 580.296 278.06 578.221C267.73 573.766 257.43 569.246 247.155 564.661C243.51 563.046 237.802 561.471 235.289 558.576C235.045 556.761 235.137 557.331 236.592 555.326C238.298 553.531 240.985 550.891 242.357 548.951Z" fill="#5E2F68"/>
<path d="M236.592 555.326C241.97 558.401 251.219 561.771 257.165 564.486C271.265 570.926 285.7 577.046 299.795 583.541C303.98 585.471 317.045 590.326 320.135 592.826C320.375 594.491 320.56 595.046 320.195 596.716C318.05 596.636 282.745 580.296 278.06 578.221C267.73 573.766 257.43 569.246 247.155 564.661C243.51 563.046 237.802 561.471 235.289 558.576C235.045 556.761 235.137 557.331 236.592 555.326Z" fill="#6C3A75"/>
<path d="M331.205 257.116C331.925 255.08 332.055 253.899 333.705 252.721C336.35 251.917 339.995 252.791 343.465 252.703C344.275 269.446 331.695 283.818 328.17 299.884C333.005 298.462 338.275 296.791 343.12 295.556C343.155 299.221 344.185 304.505 341.775 307.194C340.435 307.728 339.695 308.026 338.29 308.424C329.545 310.645 320.74 313.288 311.985 315.648L309.04 311.913C310.45 308.81 312.015 305.388 313.15 302.187C318.585 286.906 325.415 272.27 331.205 257.116Z" fill="#824B8C"/>
<path d="M331.205 257.116C331.925 255.08 332.055 253.899 333.705 252.721C336.35 251.917 339.995 252.791 343.465 252.703C344.275 269.446 331.695 283.818 328.17 299.884C333.005 298.462 338.275 296.791 343.12 295.556C343.155 299.221 344.185 304.505 341.775 307.194C340.435 307.728 339.695 308.026 338.29 308.424C338.195 305.997 337.93 304.126 337.615 301.736C334.885 303.115 326.03 307.287 323.345 305.743C322.76 300.561 333.965 280.047 335.725 273.358C336.93 268.769 337.46 264.673 338.175 260.003C336.84 259.448 331.785 257.724 331.205 257.116Z" fill="#6C3A75"/>
<path d="M350.31 254.592C350.59 251.976 350.205 251.423 352.45 249.728C355.54 247.396 357.605 246.442 360.57 243.702C365.045 255.038 375.99 274.256 381.84 286.085C380.25 288.669 376.895 296.595 376.53 296.999C368.765 299.647 358.96 301.631 351.695 304.372L350.625 304.305C349.945 302.807 350.52 294.857 350.61 292.826C353.53 291.347 356.79 290.344 359.895 289.277C360.42 289.099 363.585 288.058 363.505 287.392C362.48 279.044 348.475 262.867 350.31 254.592Z" fill="#824B8C"/>
<path d="M350.31 254.592C350.59 251.976 350.205 251.423 352.45 249.728C355.54 247.396 357.605 246.442 360.57 243.702C365.045 255.038 375.99 274.256 381.84 286.085C380.25 288.669 376.895 296.595 376.53 296.999C373.565 296.033 375.545 291.343 376.21 289.051C368.02 276.713 362.28 264.034 355.41 250.943C353.4 253.2 353.04 254.137 350.31 254.592Z" fill="#6C3A75"/>
<path d="M350.61 292.826C353.53 291.347 356.79 290.344 359.895 289.277C361.22 292.436 361.76 292.983 358.805 295.796C355.39 299.044 353.01 299.643 351.695 304.372L350.625 304.305C349.945 302.807 350.52 294.857 350.61 292.826Z" fill="#6C3A75"/>
<path d="M335.065 204.816C354.215 182.873 376.43 207.603 362.74 228.98L362.235 229.089L361.565 229.683C360.315 227.577 365.855 214.746 359.555 207.698C358.97 206.346 359.245 206.854 357.97 205.83C352.325 202.93 342.53 201.858 336.75 204.818C335.81 205.299 336.12 205.083 335.065 204.816Z" fill="#6C3A75"/>
<path d="M343.37 275.484C344.165 273.746 346.065 269.352 346.955 267.948C350.045 273.367 352.81 278.964 355.235 284.71L350.02 286.932C347.785 287.468 345.74 288.217 343.565 288.958C342.025 289.462 338.975 290.078 337.29 290.475L339.96 283.761C340.92 281.15 342.28 278.095 343.37 275.484Z" fill="#6C3A75"/>
<path d="M343.37 275.484C345.03 276.75 345.045 276.342 345.565 277.964C346.53 280.636 347.235 282.316 348.415 284.88L350.02 286.932C347.785 287.468 345.74 288.217 343.565 288.958C342.025 289.462 338.975 290.078 337.29 290.475L339.96 283.761C340.92 281.15 342.28 278.095 343.37 275.484Z" fill="#6C3A75"/>
<path d="M339.96 283.761L342.405 285.073L342.875 285.989L343.565 288.958C342.025 289.462 338.975 290.078 337.29 290.475L339.96 283.761Z" fill="#5E2F68"/>
<path d="M342.875 285.989C343.945 284.404 343.61 284.304 345.04 283.877C346.495 284.601 346.805 284.715 348.415 284.88L350.02 286.932C347.785 287.468 345.74 288.217 343.565 288.958L342.875 285.989Z" fill="#A26CA8"/>
<path d="M345.565 277.964C346.53 280.636 347.235 282.316 348.415 284.88C346.805 284.715 346.495 284.601 345.04 283.877C343.61 284.304 343.945 284.404 342.875 285.989L342.405 285.073C342.63 282.12 343.895 280.289 345.565 277.964Z" fill="#91598F"/>
</svg>
